<mxfile host="app.diagrams.net" modified="2024-04-20T07:40:01.554Z" agent="Mozilla/5.0 (Windows NT 10.0; Win64; x64; rv:125.0) Gecko/20100101 Firefox/125.0" etag="2ub8kGyeolCnFYukGipk" version="24.2.5" type="github">
  <diagram name="Page-1" id="4DVArmQ2FKZMZtiGT3NC">
    <mxGraphModel dx="881" dy="567" grid="1" gridSize="10" guides="1" tooltips="1" connect="1" arrows="1" fold="1" page="1" pageScale="1" pageWidth="850" pageHeight="1100" math="0" shadow="0">
      <root>
        <mxCell id="0" />
        <mxCell id="1" parent="0" />
        <mxCell id="9ykSHjA-KUcAoBF8mec--2" value="Web Application" style="swimlane;whiteSpace=wrap;html=1;fillColor=#e1d5e7;strokeColor=#9673a6;" vertex="1" parent="1">
          <mxGeometry x="80" y="330" width="210" height="80" as="geometry" />
        </mxCell>
        <mxCell id="9ykSHjA-KUcAoBF8mec--3" value="Mobile Application" style="swimlane;whiteSpace=wrap;html=1;fillColor=#e1d5e7;strokeColor=#9673a6;" vertex="1" parent="1">
          <mxGeometry x="80" y="420" width="210" height="80" as="geometry" />
        </mxCell>
        <mxCell id="9ykSHjA-KUcAoBF8mec--7" value="&lt;div&gt;API&lt;/div&gt;&lt;div&gt;GATEWAY&lt;br&gt;&lt;/div&gt;" style="rounded=0;whiteSpace=wrap;html=1;fillColor=#dae8fc;strokeColor=#6c8ebf;" vertex="1" parent="1">
          <mxGeometry x="440" y="270" width="80" height="280" as="geometry" />
        </mxCell>
        <mxCell id="9ykSHjA-KUcAoBF8mec--13" value="" style="endArrow=classic;html=1;rounded=0;" edge="1" parent="1">
          <mxGeometry relative="1" as="geometry">
            <mxPoint x="310" y="369.90000000000003" as="sourcePoint" />
            <mxPoint x="420" y="370" as="targetPoint" />
          </mxGeometry>
        </mxCell>
        <mxCell id="9ykSHjA-KUcAoBF8mec--14" value="&lt;div&gt;Request&lt;/div&gt;" style="edgeLabel;resizable=0;html=1;;align=center;verticalAlign=middle;" connectable="0" vertex="1" parent="9ykSHjA-KUcAoBF8mec--13">
          <mxGeometry relative="1" as="geometry" />
        </mxCell>
        <mxCell id="9ykSHjA-KUcAoBF8mec--16" value="" style="endArrow=classic;html=1;rounded=0;" edge="1" parent="1">
          <mxGeometry relative="1" as="geometry">
            <mxPoint x="310" y="450" as="sourcePoint" />
            <mxPoint x="420" y="450.1" as="targetPoint" />
          </mxGeometry>
        </mxCell>
        <mxCell id="9ykSHjA-KUcAoBF8mec--17" value="&lt;div&gt;Request&lt;/div&gt;" style="edgeLabel;resizable=0;html=1;;align=center;verticalAlign=middle;" connectable="0" vertex="1" parent="9ykSHjA-KUcAoBF8mec--16">
          <mxGeometry relative="1" as="geometry" />
        </mxCell>
        <mxCell id="9ykSHjA-KUcAoBF8mec--18" value="" style="endArrow=classic;html=1;rounded=0;" edge="1" parent="1">
          <mxGeometry relative="1" as="geometry">
            <mxPoint x="420" y="390" as="sourcePoint" />
            <mxPoint x="310" y="390" as="targetPoint" />
          </mxGeometry>
        </mxCell>
        <mxCell id="9ykSHjA-KUcAoBF8mec--19" value="&lt;div&gt;Response&lt;/div&gt;" style="edgeLabel;resizable=0;html=1;;align=center;verticalAlign=middle;" connectable="0" vertex="1" parent="9ykSHjA-KUcAoBF8mec--18">
          <mxGeometry relative="1" as="geometry" />
        </mxCell>
        <mxCell id="9ykSHjA-KUcAoBF8mec--20" value="" style="endArrow=classic;html=1;rounded=0;" edge="1" parent="1">
          <mxGeometry relative="1" as="geometry">
            <mxPoint x="420" y="470" as="sourcePoint" />
            <mxPoint x="310" y="470" as="targetPoint" />
          </mxGeometry>
        </mxCell>
        <mxCell id="9ykSHjA-KUcAoBF8mec--21" value="&lt;div&gt;Response&lt;/div&gt;" style="edgeLabel;resizable=0;html=1;;align=center;verticalAlign=middle;" connectable="0" vertex="1" parent="9ykSHjA-KUcAoBF8mec--20">
          <mxGeometry relative="1" as="geometry" />
        </mxCell>
      </root>
    </mxGraphModel>
  </diagram>
</mxfile>
